PathFileType	4	(X/Y/Z)	s05c0201.trc
DataRate	CameraRate	NumFrames	NumMarkers	Units	OrigDataRate	OrigDataStartFrame	OrigNumFrames
200	200	5	50	mm	200	1250	2000
Frame#	Time	racr			lacr			c7			jug			rlel			rdr			llel			ldr			s2			lic			ric			lasi			rasi			rpsi			lpsi			rgt			lgt			rth1			rth2			rth3			rth4			rlfc			rmfc			rsh1			rsh2			rsh3			rsh4			rlmal			rmmal			rcal			rtoe			rmt5			lth1			lth2			lth4			lth3			llfc			lmfc			lsh1			lsh2			lsh3			lsh4			llmal			lmmal			lcal			ltoe			lmt5			SBIKE			LBIKE			RBIKE			
		X1	Y1	Z1	X2	Y2	Z2	X3	Y3	Z3	X4	Y4	Z4	X5	Y5	Z5	X6	Y6	Z6	X7	Y7	Z7	X8	Y8	Z8	X9	Y9	Z9	X10	Y10	Z10	X11	Y11	Z11	X12	Y12	Z12	X13	Y13	Z13	X14	Y14	Z14	X15	Y15	Z15	X16	Y16	Z16	X17	Y17	Z17	X18	Y18	Z18	X19	Y19	Z19	X20	Y20	Z20	X21	Y21	Z21	X22	Y22	Z22	X23	Y23	Z23	X24	Y24	Z24	X25	Y25	Z25	X26	Y26	Z26	X27	Y27	Z27	X28	Y28	Z28	X29	Y29	Z29	X30	Y30	Z30	X31	Y31	Z31	X32	Y32	Z32	X33	Y33	Z33	X34	Y34	Z34	X35	Y35	Z35	X36	Y36	Z36	X37	Y37	Z37	X38	Y38	Z38	X39	Y39	Z39	X40	Y40	Z40	X41	Y41	Z41	X42	Y42	Z42	X43	Y43	Z43	X44	Y44	Z44	X45	Y45	Z45	X46	Y46	Z46	X47	Y47	Z47	X48	Y48	Z48	X49	Y49	Z49	X50	Y50	Z50	
1250	6.2500	481.185921	1265.492206	-163.223089	485.963040	1234.862575	-408.219577	462.788963	1332.993377	-302.777581	395.673259	1190.158423	-283.020097	486.761998	1074.981205	45.314888	659.561413	966.785797	-85.942921	526.283584	1079.644479	-648.674719	663.476024	962.510771	-459.029185	-120.227351	1174.448423	-280.538672	21.119530	1175.757281	-424.355379	26.171768	1209.218000	-140.934419	67.381509	1127.817578	-382.577945	69.784592	1143.964174	-163.219402	-84.802837	1226.158899	-244.529276	-83.845406	1221.584669	-330.150028	-19.105652	1066.554229	-108.259609	-28.256789	1084.399162	-448.577698	62.694978	965.231271	-93.618997	128.398752	904.970983	-98.205303	153.722004	820.807087	-107.158390	157.933498	925.296666	-109.641716	243.914352	702.549282	-134.103061	217.269270	688.870979	-237.858269	211.764291	600.816358	-96.914792	230.499902	514.656583	-105.294187	208.040065	432.242509	-102.024069	256.394436	515.421736	-134.171761	210.766147	294.531751	-107.449439	214.766987	318.929068	-188.156861	140.794561	257.820278	-146.608883	437.716532	248.963321	-161.751609	341.768698	221.530374	-90.493087	92.817834	1014.755580	-452.351990	178.521668	1008.248298	-445.095003	190.337014	1039.569608	-426.754089	251.681963	954.777396	-441.850217	369.342182	865.358569	-401.219751	343.380509	846.987372	-295.701275	279.774839	782.499279	-433.968888	235.160625	708.321540	-428.028173	157.651152	664.700804	-434.791503	255.768892	687.299026	-403.181111	75.361410	580.513255	-438.492425	107.625961	580.108029	-360.883670	7.729353	599.354301	-396.440422	167.886267	351.594675	-399.745158	84.304598	423.369304	-462.549737	-264.946188	894.858793	-286.382045	-53.406638	79.233571	-474.960870	-53.396847	79.099138	-77.362364	
1251	6.2550	481.790261	1266.883451	-164.905417	486.060769	1234.358049	-410.194100	463.341391	1333.018469	-304.785739	395.983474	1190.497133	-283.634107	488.500001	1077.602124	44.879738	660.614669	967.237194	-85.784111	525.606444	1077.353272	-649.401770	663.801393	962.656738	-459.036585	-119.089773	1175.423866	-278.747075	20.156609	1176.897966	-422.266603	28.353819	1209.414531	-139.662242	67.448467	1129.155142	-381.713058	71.713627	1143.979958	-162.495033	-82.772086	1226.640239	-241.382030	-83.208274	1222.985896	-328.308010	-18.241908	1066.265960	-107.142482	-27.823073	1087.034254	-447.689318	60.432696	963.318678	-91.970499	124.334782	901.155593	-96.113205	147.157587	816.246800	-105.008110	154.443794	920.513884	-107.673575	234.771233	695.881092	-132.062354	206.974975	682.726000	-235.495560	203.706656	594.032410	-95.037352	223.162350	507.958305	-103.879531	201.558364	425.463443	-100.705130	248.895699	509.253349	-132.943698	205.287104	287.767432	-106.906473	209.466703	312.171369	-187.461292	135.190561	252.062429	-146.213688	431.993748	238.762927	-161.677719	335.676605	212.817845	-90.308127	93.309730	1020.036742	-451.793174	179.362063	1015.037794	-444.708755	190.563850	1046.389548	-425.852897	253.512212	963.028732	-442.056193	373.084202	875.325490	-401.434979	347.698086	856.628099	-295.056747	283.990239	792.798491	-433.862209	239.387600	718.444754	-428.149729	161.848688	674.871549	-434.473474	260.182303	697.142159	-403.522290	79.200734	589.571187	-438.030746	111.633025	589.475480	-360.691724	11.101691	607.427253	-396.053501	175.028652	362.146263	-399.681432	90.456277	432.773850	-462.389020	-264.632768	894.964430	-286.052700	-53.396093	79.284176	-474.944093	-53.399305	79.118263	-77.326173	
1252	6.2600	482.430611	1268.250097	-166.502752	485.955958	1234.050882	-412.170897	463.909858	1332.919309	-306.772662	396.226540	1190.789964	-284.076217	490.252917	1080.091147	44.439726	661.646810	967.567810	-85.614751	524.833599	1075.193490	-650.182582	663.907659	962.706411	-459.087514	-117.910882	1176.424382	-276.690972	20.108801	1178.368274	-421.958356	30.749328	1209.464210	-138.440216	67.526776	1130.668930	-381.162506	73.516186	1143.771458	-161.874214	-81.457710	1227.663137	-236.266700	-82.600334	1224.057174	-325.704093	-17.459985	1066.130519	-106.125943	-27.502891	1089.871139	-446.870203	57.938158	961.813474	-90.273671	120.103177	897.790879	-94.071749	140.515744	812.225775	-102.475764	150.740033	916.301606	-105.549362	225.236593	689.738664	-129.330020	196.873415	676.995963	-233.115717	195.098033	587.770326	-93.103635	215.234586	502.002899	-102.258359	194.323515	419.232969	-99.613547	240.992058	503.432982	-131.390298	199.169511	281.514056	-106.437176	203.900692	306.065618	-186.803128	129.093429	247.023380	-146.202508	425.723906	229.031662	-161.421197	328.980532	204.375092	-90.178241	93.745853	1025.168319	-451.233326	179.906378	1021.715206	-444.429688	190.487893	1053.097403	-425.003800	254.956377	971.162315	-442.448820	376.857178	885.164911	-402.030665	352.229415	865.793396	-295.170837	288.264152	802.839760	-433.676099	243.274842	728.349749	-427.621498	165.898743	684.967612	-434.108298	264.672832	706.942842	-404.036331	83.123525	598.279489	-437.460588	115.796841	598.567025	-360.151407	14.924586	615.026690	-395.767061	182.795045	372.617046	-399.737545	96.990774	441.838689	-462.267186	-264.484369	895.081945	-286.005757	-53.397669	79.370721	-474.916786	-53.386763	79.126832	-77.307902	
1253	6.2650	483.220113	1269.311547	-167.941487	488.014276	1234.741776	-415.899798	464.439241	1332.758148	-308.718574	398.653405	1189.845109	-285.371201	492.314901	1082.397502	44.085590	662.577725	967.787812	-85.441838	523.823023	1073.186261	-651.016344	663.770139	962.679997	-459.136435	-116.706550	1177.335469	-274.370348	19.532890	1179.734063	-420.700606	33.095636	1209.484149	-137.274634	67.466806	1132.155181	-380.587765	75.173273	1143.469869	-161.409569	-79.930699	1228.468063	-233.922812	-81.949036	1225.215077	-323.183977	-16.839938	1066.040139	-105.188116	-27.353307	1092.822135	-446.063088	55.384381	960.400524	-88.684522	115.782651	894.868349	-91.806154	133.956701	808.788791	-99.703281	146.982624	912.561821	-103.133042	215.661805	684.088023	-126.590349	187.200335	671.768700	-230.713582	185.980811	582.148333	-91.073516	206.723625	496.454207	-100.531426	186.219051	413.501425	-98.599760	232.624637	498.374809	-129.349502	192.589035	275.860582	-106.099111	198.097854	300.368518	-186.205938	122.529440	242.341430	-146.162781	418.853312	219.645754	-161.546294	321.734238	196.491308	-89.916098	93.965080	1030.123488	-450.915264	180.206793	1028.317666	-444.285871	190.088797	1059.408526	-424.054821	256.182046	978.880840	-442.737753	380.258828	895.011625	-402.774233	356.717885	874.637724	-295.539108	291.933190	812.769816	-433.590747	247.303686	738.194986	-427.659740	169.947225	694.798335	-433.699682	269.025131	716.559759	-404.584539	87.160003	606.497081	-436.834253	120.147393	607.193275	-359.222236	18.214858	621.854656	-395.199026	191.368164	383.343566	-399.568156	104.050101	450.388511	-462.072935	-264.415440	895.151419	-285.779000	-53.389484	79.436856	-474.908360	-53.386798	79.133071	-77.291173	
1254	6.2700	483.927116	1270.279335	-169.613392	487.956361	1234.577409	-418.098859	464.959675	1332.566945	-310.715677	399.032773	1189.929735	-286.110027	493.925660	1084.478863	43.469587	663.435842	967.885640	-85.292492	522.822867	1071.235612	-651.875068	663.472680	962.639213	-459.217594	-115.502903	1178.388913	-272.178160	18.947003	1181.178858	-419.530824	35.483964	1209.527592	-136.414212	67.260163	1133.410068	-379.826003	76.798601	1142.932887	-160.898106	-78.521337	1229.363016	-232.194998	-81.256347	1226.512151	-320.823234	-16.298881	1066.078576	-104.257631	-27.311817	1095.830196	-445.281279	52.740839	959.234345	-87.004785	111.507613	892.245999	-89.204245	127.467872	805.712680	-96.717699	143.182107	908.855964	-100.672278	206.119132	678.983064	-123.858493	177.691476	667.378404	-228.031663	176.619701	576.942331	-88.975294	197.767304	491.476559	-98.561713	177.558874	408.431733	-97.429220	224.029054	493.700534	-127.044330	185.602380	270.664039	-105.791850	191.694070	296.395779	-186.260370	115.510698	238.268456	-146.214683	411.540675	211.002397	-161.224517	314.030217	189.147157	-89.769931	94.051019	1034.676429	-450.788127	180.312752	1034.355919	-443.991651	189.632585	1065.716923	-423.449812	257.171315	986.329063	-442.979789	383.376160	905.203396	-403.114994	360.863898	883.639520	-295.777461	295.677525	822.291394	-433.517982	251.220526	747.683944	-427.689414	173.938529	704.246122	-433.351329	273.378989	725.966567	-405.179886	91.435792	614.036093	-436.197218	124.472322	615.211726	-358.709778	21.974498	627.974552	-394.736300	200.450502	392.839322	-399.781243	111.474176	458.510708	-462.012460	-264.420017	895.274333	-285.569495	-53.385060	79.531651	-474.883263	-53.382114	79.153280	-77.268767	
